/vscmnt/brussel_pixiu_data/_data_brussel/112/vsc11236/PredSimResults/SUBJ06mtu3D/worker9.mot
version=1
nRows=5
nColumns=50
inDegrees=yes
endheader
                time	         pelvis_tilt	         pelvis_list	     pelvis_rotation	           pelvis_tx	           pelvis_ty	           pelvis_tz	       hip_flexion_r	     hip_adduction_r	      hip_rotation_r	        knee_angle_r	       ankle_angle_r	         mtp_angle_r	       hip_flexion_l	     hip_adduction_l	      hip_rotation_l	        knee_angle_l	       ankle_angle_l	         mtp_angle_l	    lumbar_extension	      lumbar_bending	     lumbar_rotation	 ercspn_r/activation	 intobl_r/activation	 extobl_r/activation	    abd_r/activation	    add_r/activation	hamstrings_r/activation	bifemsh_r/activation	glut_max_r/activation	iliopsoas_r/activation	rect_fem_r/activation	  vasti_r/activation	gastroc_r/activation	 soleus_r/activation	tib_ant_r/activation	 ercspn_l/activation	 intobl_l/activation	 extobl_l/activation	    abd_l/activation	    add_l/activation	hamstrings_l/activation	bifemsh_l/activation	glut_max_l/activation	iliopsoas_l/activation	rect_fem_l/activation	  vasti_l/activation	gastroc_l/activation	 soleus_l/activation	tib_ant_l/activation	
          0.00000000	         -4.26826509	         -0.56282955	          4.90522285	          0.00000000	          0.93510165	         -0.01172788	         31.24335864	         -2.10395868	        -10.73776083	        -10.56345510	          2.32892808	          0.21914278	        -11.08359080	         -0.93082156	        -10.46410023	        -11.19170815	          9.12663723	         30.77824718	         -8.14597056	         -0.74998275	         -7.46178381	          0.20288448	          0.17671059	          0.00999999	          0.00999999	          0.27231948	          0.02968117	          0.09163132	          0.01694300	          0.14725706	          0.01241435	          0.00999999	          0.01202735	          0.00999999	          0.44264298	          0.11777521	          0.00999999	          0.00999999	          0.06450381	          0.00999999	          0.01000002	          0.25060670	          0.01424966	          0.31410672	          0.01739840	          0.00999999	          0.27518591	          0.35866810	          0.02092575	
          0.01216417	         -4.32266002	         -0.43612677	          4.87544960	          0.01644742	          0.93312792	         -0.01100602	         31.41522085	         -2.03212151	        -10.97386944	        -12.04842078	          2.05632342	          0.22668259	        -11.64800784	         -0.98492545	        -10.85122038	        -11.89722870	          8.25597491	         32.52292850	         -7.84858684	         -0.46548287	         -7.91821198	          0.18647073	          0.14692382	          0.00999999	          0.00999999	          0.44001469	          0.04264477	          0.07618572	          0.11483745	          0.12243505	          0.01202735	          0.00999999	          0.00999999	          0.00999999	          0.46200801	          0.18686558	          0.00999999	          0.00999999	          0.05363089	          0.01000000	          0.01000000	          0.21894541	          0.01446573	          0.37832096	          0.01446571	          0.00999999	          0.25037574	          0.34106163	          0.01739845	
          0.02432834	         -4.35938679	         -0.36140129	          4.83865652	          0.03335739	          0.93129570	         -0.01026472	         31.32651141	         -2.01690900	        -10.84807229	        -13.58269591	          1.71061643	          0.19924581	        -12.06648038	         -1.13882212	        -11.22317384	        -12.94024351	          7.29683215	         34.31701154	         -7.51307417	         -0.11205733	         -8.34190768	          0.15503877	          0.12215799	          0.00999999	          0.01056226	          0.36584474	          0.05808323	          0.06334367	          0.12020086	          0.10179710	          0.00999999	          0.03019357	          0.01446573	          0.01446573	          0.49623073	          0.19050482	          0.00999999	          0.00999999	          0.04459074	          0.01202732	          0.01202736	          0.21704714	          0.01202735	          0.35708426	          0.01202733	          0.00999999	          0.20817180	          0.31751195	          0.01446573	
          0.03649250	         -4.38279122	         -0.34449014	          4.78043049	          0.05056306	          0.92968966	         -0.00938517	         31.01035506	         -1.98083334	        -10.75882422	        -14.85091749	          1.38431655	          0.18953634	        -12.26195225	         -1.41484232	        -11.59648980	        -14.43099972	          6.22837375	         36.15282433	         -7.15580359	          0.29838378	         -8.71695490	          0.16155976	          0.10156674	          0.00999999	          0.06642947	          0.30417706	          0.06061363	          0.05266631	          0.09993952	          0.08463793	          0.00999999	          0.05711473	          0.01202735	          0.01202735	          0.56185127	          0.18294732	          0.00999999	          0.00999999	          0.03707441	          0.00999999	          0.01000001	          0.22488196	          0.00999999	          0.32535148	          0.01000000	          0.00999999	          0.17308185	          0.29370299	          0.01202735	
          0.04865667	         -4.39534181	         -0.34532832	          4.69133956	          0.06781575	          0.92844366	         -0.00834657	         30.57283558	         -1.93174674	        -10.81869217	        -15.90604182	          0.95615040	          0.16334349	        -12.16357272	         -1.78112499	        -11.97827994	        -16.45487595	          4.97385764	         38.02310684	         -6.80885602	          0.71816916	         -9.03311532	          0.15773708	          0.08444640	          0.00999999	          0.11732207	          0.25290424	          0.06936049	          0.04378875	          0.09809669	          0.07037116	          0.00999999	          0.12617843	          0.00999999	          0.00999999	          0.61483629	          0.21042018	          0.00999999	          0.00999999	          0.03082506	          0.00999999	          0.01000000	          0.18697532	          0.00999999	          0.27050944	          0.00999999	          0.00999999	          0.14390675	          0.24781200	          0.00999999	
